<svg id="svg" version="1.1" xmlns="http://www.w3.org/2000/svg" xmlns:xlink="http://www.w3.org/1999/xlink" width="400" height="172.27722772277227" viewBox="0, 0, 400,172.27722772277227"><g id="svgg"><path id="path0" d="M82.292 39.994 C 81.155 40.068,80.006 40.211,79.740 40.313 C 79.475 40.415,78.311 40.585,77.155 40.690 C 75.601 40.831,74.821 40.988,74.160 41.293 C 73.668 41.520,73.086 41.707,72.867 41.707 C 72.323 41.708,71.231 42.012,70.401 42.394 C 70.022 42.568,69.362 42.763,68.936 42.828 C 68.509 42.892,67.889 43.122,67.557 43.339 C 67.225 43.557,66.721 43.788,66.437 43.853 C 66.153 43.919,65.765 44.115,65.575 44.289 C 65.386 44.463,64.897 44.694,64.489 44.802 C 64.081 44.910,63.706 45.108,63.655 45.242 C 63.603 45.375,63.396 45.537,63.194 45.601 C 62.991 45.665,62.447 45.979,61.984 46.297 C 61.521 46.616,61.048 46.876,60.934 46.876 C 60.819 46.876,60.557 47.070,60.351 47.307 C 60.145 47.544,59.862 47.738,59.723 47.738 C 59.583 47.738,59.204 47.971,58.880 48.255 C 58.556 48.539,58.236 48.772,58.168 48.772 C 58.100 48.772,57.836 48.985,57.581 49.246 C 57.327 49.507,56.395 50.379,55.511 51.185 C 53.171 53.318,52.941 53.554,49.246 57.609 C 48.985 57.895,48.772 58.225,48.772 58.341 C 48.772 58.458,48.645 58.659,48.490 58.787 C 48.335 58.916,48.013 59.333,47.773 59.713 C 47.534 60.094,47.196 60.506,47.021 60.630 C 46.847 60.754,46.704 61.000,46.704 61.177 C 46.704 61.354,46.515 61.723,46.284 61.997 C 46.054 62.272,45.812 62.706,45.748 62.963 C 45.683 63.219,45.499 63.524,45.337 63.640 C 45.176 63.757,44.943 64.216,44.820 64.662 C 44.697 65.107,44.454 65.600,44.281 65.757 C 44.108 65.914,43.915 66.286,43.852 66.584 C 43.789 66.882,43.513 67.523,43.239 68.009 C 42.965 68.494,42.740 69.108,42.740 69.372 C 42.740 69.637,42.554 70.171,42.326 70.560 C 42.098 70.949,41.857 71.654,41.790 72.126 C 41.723 72.599,41.516 73.335,41.330 73.761 C 41.119 74.245,40.904 75.381,40.761 76.777 C 40.635 78.009,40.440 79.250,40.328 79.535 C 39.743 81.026,39.742 90.426,40.327 92.977 C 40.500 93.735,40.725 95.131,40.825 96.079 C 40.933 97.103,41.140 98.062,41.334 98.440 C 41.513 98.790,41.713 99.619,41.778 100.281 C 41.858 101.086,42.012 101.631,42.243 101.925 C 42.433 102.167,42.633 102.656,42.686 103.013 C 42.740 103.370,42.997 104.050,43.257 104.524 C 43.518 104.998,43.785 105.618,43.851 105.903 C 43.918 106.187,44.115 106.575,44.289 106.764 C 44.463 106.954,44.689 107.426,44.792 107.814 C 44.895 108.202,45.135 108.660,45.325 108.832 C 45.515 109.004,45.670 109.235,45.670 109.345 C 45.670 109.456,45.900 109.851,46.182 110.224 C 46.464 110.596,46.697 111.014,46.699 111.153 C 46.702 111.292,46.861 111.563,47.054 111.756 C 47.447 112.151,48.406 113.433,48.721 113.984 C 49.366 115.116,53.524 119.511,56.075 121.758 C 56.721 122.327,57.425 122.966,57.640 123.180 C 57.856 123.393,58.117 123.567,58.221 123.567 C 58.326 123.567,58.676 123.800,59.000 124.084 C 59.324 124.369,59.679 124.601,59.789 124.601 C 59.900 124.601,60.165 124.777,60.379 124.991 C 60.594 125.205,61.092 125.526,61.487 125.704 C 61.881 125.882,62.335 126.172,62.495 126.349 C 62.654 126.525,62.890 126.670,63.018 126.670 C 63.147 126.670,63.387 126.828,63.552 127.021 C 63.717 127.215,64.258 127.491,64.755 127.636 C 65.251 127.781,65.716 127.999,65.789 128.122 C 65.861 128.244,66.326 128.440,66.823 128.558 C 67.319 128.675,67.901 128.907,68.115 129.074 C 68.330 129.240,68.931 129.475,69.453 129.595 C 69.974 129.715,70.648 129.963,70.951 130.145 C 71.254 130.328,71.989 130.555,72.584 130.651 C 73.180 130.747,73.909 130.975,74.204 131.158 C 74.599 131.402,75.312 131.539,76.880 131.674 C 78.056 131.776,79.444 131.990,79.966 132.151 C 81.430 132.602,318.783 132.604,320.121 132.152 C 320.595 131.992,321.948 131.777,323.128 131.675 C 324.697 131.539,325.427 131.398,325.847 131.150 C 326.162 130.964,326.888 130.736,327.460 130.644 C 328.031 130.552,328.746 130.328,329.049 130.145 C 329.352 129.963,330.026 129.716,330.547 129.596 C 331.069 129.477,331.699 129.236,331.949 129.061 C 332.199 128.886,332.805 128.656,333.297 128.551 C 333.788 128.446,334.228 128.259,334.275 128.137 C 334.322 128.015,334.724 127.817,335.168 127.698 C 335.612 127.578,336.174 127.298,336.416 127.075 C 336.658 126.852,336.912 126.670,336.980 126.670 C 337.049 126.670,337.499 126.398,337.981 126.066 C 338.464 125.735,338.931 125.463,339.019 125.463 C 339.107 125.463,339.374 125.269,339.611 125.032 C 339.848 124.795,340.144 124.601,340.269 124.601 C 340.394 124.601,340.759 124.370,341.080 124.087 C 341.401 123.804,341.738 123.572,341.829 123.570 C 341.921 123.569,342.153 123.416,342.346 123.232 C 342.539 123.047,343.040 122.601,343.460 122.241 C 343.880 121.880,345.411 120.383,346.862 118.914 C 348.314 117.445,349.696 116.046,349.934 115.806 C 350.172 115.565,350.366 115.283,350.366 115.179 C 350.366 115.075,350.560 114.863,350.797 114.708 C 351.034 114.553,351.228 114.328,351.228 114.209 C 351.228 113.977,352.383 112.331,352.950 111.756 C 353.140 111.563,353.296 111.317,353.296 111.209 C 353.296 111.101,353.479 110.794,353.703 110.526 C 353.927 110.258,354.165 109.864,354.232 109.650 C 354.299 109.436,354.532 109.049,354.750 108.788 C 354.969 108.528,355.204 108.055,355.273 107.738 C 355.342 107.420,355.533 107.026,355.697 106.862 C 355.861 106.699,356.131 106.144,356.298 105.631 C 356.465 105.117,356.707 104.579,356.835 104.435 C 356.963 104.291,357.154 103.790,357.259 103.320 C 357.364 102.851,357.600 102.225,357.783 101.929 C 357.965 101.634,358.191 100.852,358.285 100.192 C 358.379 99.532,358.605 98.646,358.788 98.225 C 358.986 97.769,359.195 96.683,359.303 95.547 C 359.404 94.495,359.620 93.254,359.785 92.789 C 360.276 91.402,360.232 81.688,359.726 79.535 C 359.525 78.682,359.309 77.287,359.246 76.436 C 359.181 75.560,358.990 74.551,358.806 74.110 C 358.627 73.681,358.393 72.831,358.287 72.220 C 358.181 71.609,357.949 70.925,357.772 70.700 C 357.595 70.475,357.399 69.927,357.337 69.484 C 357.275 69.040,357.046 68.399,356.827 68.058 C 356.608 67.718,356.352 67.158,356.257 66.814 C 356.162 66.470,355.930 65.972,355.742 65.708 C 355.554 65.444,355.311 64.898,355.203 64.496 C 355.095 64.095,354.929 63.766,354.834 63.766 C 354.740 63.766,354.504 63.436,354.311 63.033 C 353.722 61.804,353.152 60.807,352.871 60.513 C 352.363 59.979,351.228 58.345,351.228 58.146 C 351.228 58.036,351.034 57.819,350.797 57.663 C 350.560 57.508,350.366 57.300,350.366 57.201 C 350.366 56.891,346.267 52.685,344.083 50.754 C 343.440 50.185,342.698 49.507,342.435 49.246 C 342.171 48.985,341.875 48.772,341.776 48.772 C 341.677 48.772,341.489 48.619,341.357 48.431 C 341.226 48.243,340.852 47.978,340.526 47.842 C 340.199 47.706,339.787 47.433,339.608 47.235 C 339.429 47.038,339.197 46.876,339.092 46.876 C 338.987 46.876,338.498 46.605,338.005 46.273 C 337.513 45.941,337.033 45.670,336.940 45.670 C 336.847 45.670,336.668 45.523,336.541 45.342 C 336.415 45.162,335.985 44.927,335.585 44.819 C 335.184 44.711,334.721 44.485,334.555 44.316 C 334.389 44.147,333.906 43.909,333.483 43.787 C 333.059 43.665,332.633 43.459,332.535 43.329 C 332.437 43.199,331.777 42.972,331.068 42.825 C 330.359 42.677,329.614 42.448,329.412 42.315 C 329.210 42.183,328.445 41.951,327.711 41.799 C 326.978 41.648,326.095 41.381,325.748 41.206 C 325.327 40.993,324.394 40.823,322.937 40.695 C 321.737 40.590,320.535 40.419,320.266 40.316 C 319.996 40.213,318.651 40.059,317.277 39.974 C 314.213 39.785,85.229 39.805,82.292 39.994 M320.655 55.328 C 320.915 55.426,321.210 55.614,321.313 55.745 C 321.415 55.875,322.034 56.063,322.686 56.161 C 323.455 56.277,324.005 56.463,324.247 56.691 C 324.460 56.891,324.985 57.092,325.466 57.158 C 325.996 57.230,326.455 57.418,326.698 57.661 C 326.911 57.874,327.323 58.100,327.614 58.164 C 327.905 58.228,328.354 58.455,328.612 58.670 C 328.871 58.885,329.310 59.116,329.589 59.184 C 329.868 59.252,330.217 59.446,330.365 59.614 C 330.512 59.782,330.866 59.996,331.150 60.089 C 331.435 60.182,331.765 60.457,331.883 60.701 C 332.002 60.944,332.293 61.192,332.530 61.251 C 332.795 61.318,332.960 61.482,332.960 61.679 C 332.960 61.895,333.124 62.032,333.463 62.100 C 333.762 62.160,334.012 62.343,334.078 62.552 C 334.139 62.746,334.259 62.904,334.344 62.904 C 334.657 62.904,335.776 64.035,336.004 64.582 C 336.133 64.891,336.347 65.144,336.478 65.144 C 336.610 65.144,336.799 65.377,336.898 65.661 C 336.997 65.946,337.197 66.178,337.343 66.178 C 337.489 66.178,337.725 66.457,337.867 66.797 C 338.009 67.137,338.320 67.647,338.559 67.930 C 338.797 68.214,338.992 68.564,338.992 68.709 C 338.992 68.854,339.190 69.208,339.432 69.495 C 339.674 69.783,339.917 70.243,339.972 70.517 C 340.026 70.792,340.214 71.092,340.387 71.185 C 340.561 71.278,340.816 71.734,340.954 72.198 C 341.092 72.663,341.325 73.226,341.472 73.451 C 341.619 73.675,341.822 74.435,341.922 75.140 C 342.051 76.051,342.214 76.538,342.486 76.828 C 343.075 77.454,343.090 88.658,342.503 89.301 C 342.246 89.583,342.078 90.114,341.940 91.081 C 341.814 91.967,341.613 92.639,341.378 92.960 C 341.176 93.234,340.973 93.799,340.927 94.215 C 340.868 94.737,340.716 95.069,340.434 95.291 C 340.209 95.468,340.026 95.725,340.026 95.863 C 340.026 96.401,339.636 97.190,339.322 97.290 C 339.099 97.361,338.992 97.554,338.992 97.884 C 338.992 98.191,338.767 98.643,338.389 99.095 C 338.057 99.492,337.785 99.889,337.785 99.977 C 337.785 100.065,337.592 100.225,337.355 100.333 C 337.118 100.441,336.924 100.674,336.924 100.850 C 336.924 101.026,336.736 101.256,336.506 101.361 C 336.276 101.466,336.045 101.726,335.991 101.940 C 335.937 102.154,335.738 102.369,335.549 102.419 C 335.360 102.468,335.128 102.710,335.034 102.956 C 334.941 103.202,334.744 103.404,334.598 103.404 C 334.451 103.404,334.245 103.594,334.139 103.826 C 334.028 104.069,333.744 104.293,333.471 104.353 C 333.203 104.412,332.957 104.603,332.908 104.790 C 332.860 104.973,332.626 105.197,332.388 105.287 C 332.150 105.378,331.907 105.604,331.848 105.789 C 331.789 105.975,331.565 106.171,331.349 106.225 C 331.133 106.279,330.734 106.515,330.462 106.749 C 330.190 106.982,329.774 107.222,329.537 107.282 C 329.300 107.341,328.889 107.572,328.624 107.795 C 328.359 108.018,327.905 108.252,327.614 108.316 C 327.323 108.380,326.909 108.608,326.694 108.824 C 326.421 109.096,325.995 109.254,325.294 109.342 C 324.605 109.428,324.199 109.576,324.009 109.810 C 323.791 110.079,323.425 110.179,322.303 110.275 C 321.517 110.343,320.820 110.487,320.753 110.595 C 320.186 111.512,310.436 111.630,309.118 110.736 C 308.702 110.453,308.202 110.323,307.278 110.257 C 306.281 110.186,305.947 110.091,305.725 109.817 C 305.530 109.575,305.132 109.429,304.436 109.342 C 303.734 109.254,303.321 109.101,303.072 108.836 C 302.875 108.626,302.482 108.398,302.197 108.329 C 301.913 108.259,301.439 108.019,301.144 107.794 C 300.849 107.570,300.410 107.337,300.170 107.276 C 299.929 107.216,299.582 107.026,299.398 106.854 C 299.213 106.683,298.820 106.417,298.524 106.264 C 298.228 106.111,297.907 105.840,297.812 105.662 C 297.717 105.484,297.443 105.290,297.204 105.230 C 296.922 105.159,296.769 105.001,296.769 104.779 C 296.769 104.583,296.653 104.438,296.496 104.438 C 296.198 104.438,294.709 103.079,294.702 102.801 C 294.700 102.706,294.466 102.496,294.182 102.335 C 293.899 102.173,293.667 101.919,293.667 101.770 C 293.667 101.621,293.473 101.426,293.236 101.336 C 292.989 101.242,292.805 101.035,292.805 100.851 C 292.805 100.674,292.611 100.441,292.374 100.333 C 292.137 100.225,291.943 100.060,291.943 99.967 C 291.943 99.873,291.720 99.542,291.448 99.230 C 291.176 98.919,290.894 98.393,290.822 98.061 C 290.750 97.729,290.548 97.358,290.374 97.236 C 290.200 97.114,289.971 96.694,289.865 96.302 C 289.760 95.910,289.497 95.450,289.282 95.281 C 289.001 95.060,288.861 94.721,288.784 94.074 C 288.726 93.580,288.618 93.131,288.544 93.076 C 288.133 92.772,287.951 92.273,287.818 91.086 C 287.704 90.069,287.577 89.663,287.269 89.335 C 286.522 88.541,286.557 77.709,287.308 76.842 C 287.686 76.407,287.749 76.171,287.872 74.731 C 287.930 74.060,288.072 73.596,288.296 73.353 C 288.481 73.151,288.687 72.653,288.753 72.247 C 288.835 71.742,289.005 71.422,289.287 71.237 C 289.517 71.086,289.779 70.672,289.878 70.302 C 289.977 69.937,290.200 69.538,290.374 69.416 C 290.548 69.294,290.743 68.953,290.808 68.658 C 290.873 68.363,291.108 67.963,291.331 67.769 C 291.554 67.576,291.787 67.188,291.848 66.908 C 291.915 66.602,292.129 66.321,292.382 66.206 C 292.615 66.100,292.805 65.896,292.805 65.753 C 292.805 65.609,292.962 65.394,293.154 65.275 C 293.346 65.156,293.656 64.745,293.842 64.361 C 294.048 63.936,294.466 63.483,294.915 63.200 C 295.319 62.945,295.747 62.580,295.866 62.389 C 295.985 62.198,296.237 62.042,296.425 62.042 C 296.653 62.042,296.769 61.927,296.769 61.701 C 296.769 61.485,296.919 61.322,297.177 61.257 C 297.401 61.201,297.752 60.928,297.957 60.651 C 298.162 60.373,298.433 60.146,298.560 60.146 C 298.686 60.146,299.082 59.914,299.440 59.629 C 299.798 59.345,300.216 59.112,300.368 59.112 C 300.521 59.112,300.866 58.923,301.135 58.692 C 301.404 58.461,301.869 58.218,302.169 58.153 C 302.469 58.087,302.873 57.862,303.068 57.653 C 303.293 57.411,303.726 57.231,304.264 57.157 C 304.741 57.092,305.269 56.890,305.479 56.693 C 305.706 56.480,306.278 56.275,306.953 56.167 C 307.571 56.067,308.209 55.850,308.402 55.672 C 308.591 55.498,308.901 55.318,309.091 55.272 C 309.804 55.099,320.187 55.150,320.655 55.328 " stroke="none" fill="#040804" fill-rule="evenodd"></path><path id="path1" d="M309.091 55.272 C 308.901 55.318,308.591 55.498,308.402 55.672 C 308.209 55.850,307.571 56.067,306.953 56.167 C 306.278 56.275,305.706 56.480,305.479 56.693 C 305.269 56.890,304.741 57.092,304.264 57.157 C 303.726 57.231,303.293 57.411,303.068 57.653 C 302.873 57.862,302.469 58.087,302.169 58.153 C 301.869 58.218,301.404 58.461,301.135 58.692 C 300.866 58.923,300.521 59.112,300.368 59.112 C 300.216 59.112,299.798 59.345,299.440 59.629 C 299.082 59.914,298.686 60.146,298.560 60.146 C 298.433 60.146,298.162 60.373,297.957 60.651 C 297.752 60.928,297.401 61.201,297.177 61.257 C 296.919 61.322,296.769 61.485,296.769 61.701 C 296.769 61.927,296.653 62.042,296.425 62.042 C 296.237 62.042,295.985 62.198,295.866 62.389 C 295.747 62.580,295.319 62.945,294.915 63.200 C 294.466 63.483,294.048 63.936,293.842 64.361 C 293.656 64.745,293.346 65.156,293.154 65.275 C 292.962 65.394,292.805 65.609,292.805 65.753 C 292.805 65.896,292.615 66.100,292.382 66.206 C 292.129 66.321,291.915 66.602,291.848 66.908 C 291.787 67.188,291.554 67.576,291.331 67.769 C 291.108 67.963,290.873 68.363,290.808 68.658 C 290.743 68.953,290.548 69.294,290.374 69.416 C 290.200 69.538,289.977 69.937,289.878 70.302 C 289.779 70.672,289.517 71.086,289.287 71.237 C 289.005 71.422,288.835 71.742,288.753 72.247 C 288.687 72.653,288.481 73.151,288.296 73.353 C 288.072 73.596,287.930 74.060,287.872 74.731 C 287.749 76.171,287.686 76.407,287.308 76.842 C 286.557 77.709,286.522 88.541,287.269 89.335 C 287.577 89.663,287.704 90.069,287.818 91.086 C 287.951 92.273,288.133 92.772,288.544 93.076 C 288.618 93.131,288.726 93.580,288.784 94.074 C 288.861 94.721,289.001 95.060,289.282 95.281 C 289.497 95.450,289.760 95.910,289.865 96.302 C 289.971 96.694,290.200 97.114,290.374 97.236 C 290.548 97.358,290.750 97.729,290.822 98.061 C 290.894 98.393,291.176 98.919,291.448 99.230 C 291.720 99.542,291.943 99.873,291.943 99.967 C 291.943 100.060,292.137 100.225,292.374 100.333 C 292.611 100.441,292.805 100.674,292.805 100.851 C 292.805 101.035,292.989 101.242,293.236 101.336 C 293.473 101.426,293.667 101.621,293.667 101.770 C 293.667 101.919,293.899 102.173,294.182 102.335 C 294.466 102.496,294.700 102.706,294.702 102.801 C 294.709 103.079,296.198 104.438,296.496 104.438 C 296.653 104.438,296.769 104.583,296.769 104.779 C 296.769 105.001,296.922 105.159,297.204 105.230 C 297.443 105.290,297.717 105.484,297.812 105.662 C 297.907 105.840,298.228 106.111,298.524 106.264 C 298.820 106.417,299.213 106.683,299.398 106.854 C 299.582 107.026,299.929 107.216,300.170 107.276 C 300.410 107.337,300.849 107.570,301.144 107.794 C 301.439 108.019,301.913 108.259,302.197 108.329 C 302.482 108.398,302.875 108.626,303.072 108.836 C 303.321 109.101,303.734 109.254,304.436 109.342 C 305.132 109.429,305.530 109.575,305.725 109.817 C 305.947 110.091,306.281 110.186,307.278 110.257 C 308.202 110.323,308.702 110.453,309.118 110.736 C 310.436 111.630,320.186 111.512,320.753 110.595 C 320.820 110.487,321.517 110.343,322.303 110.275 C 323.425 110.179,323.791 110.079,324.009 109.810 C 324.199 109.576,324.605 109.428,325.294 109.342 C 325.995 109.254,326.421 109.096,326.694 108.824 C 326.909 108.608,327.323 108.380,327.614 108.316 C 327.905 108.252,328.359 108.018,328.624 107.795 C 328.889 107.572,329.300 107.341,329.537 107.282 C 329.774 107.222,330.190 106.982,330.462 106.749 C 330.734 106.515,331.133 106.279,331.349 106.225 C 331.565 106.171,331.789 105.975,331.848 105.789 C 331.907 105.604,332.150 105.378,332.388 105.287 C 332.626 105.197,332.860 104.973,332.908 104.790 C 332.957 104.603,333.203 104.412,333.471 104.353 C 333.744 104.293,334.028 104.069,334.139 103.826 C 334.245 103.594,334.451 103.404,334.598 103.404 C 334.744 103.404,334.941 103.202,335.034 102.956 C 335.128 102.710,335.360 102.468,335.549 102.419 C 335.738 102.369,335.937 102.154,335.991 101.940 C 336.045 101.726,336.276 101.466,336.506 101.361 C 336.736 101.256,336.924 101.026,336.924 100.850 C 336.924 100.674,337.118 100.441,337.355 100.333 C 337.592 100.225,337.785 100.065,337.785 99.977 C 337.785 99.889,338.057 99.492,338.389 99.095 C 338.767 98.643,338.992 98.191,338.992 97.884 C 338.992 97.554,339.099 97.361,339.322 97.290 C 339.636 97.190,340.026 96.401,340.026 95.863 C 340.026 95.725,340.209 95.468,340.434 95.291 C 340.716 95.069,340.868 94.737,340.927 94.215 C 340.973 93.799,341.176 93.234,341.378 92.960 C 341.613 92.639,341.814 91.967,341.940 91.081 C 342.078 90.114,342.246 89.583,342.503 89.301 C 343.090 88.658,343.075 77.454,342.486 76.828 C 342.214 76.538,342.051 76.051,341.922 75.140 C 341.822 74.435,341.619 73.675,341.472 73.451 C 341.325 73.226,341.092 72.663,340.954 72.198 C 340.816 71.734,340.561 71.278,340.387 71.185 C 340.214 71.092,340.026 70.792,339.972 70.517 C 339.917 70.243,339.674 69.783,339.432 69.495 C 339.190 69.208,338.992 68.854,338.992 68.709 C 338.992 68.564,338.797 68.214,338.559 67.930 C 338.320 67.647,338.009 67.137,337.867 66.797 C 337.725 66.457,337.489 66.178,337.343 66.178 C 337.197 66.178,336.997 65.946,336.898 65.661 C 336.799 65.377,336.610 65.144,336.478 65.144 C 336.347 65.144,336.133 64.891,336.004 64.582 C 335.776 64.035,334.657 62.904,334.344 62.904 C 334.259 62.904,334.139 62.746,334.078 62.552 C 334.012 62.343,333.762 62.160,333.463 62.100 C 333.124 62.032,332.960 61.895,332.960 61.679 C 332.960 61.482,332.795 61.318,332.530 61.251 C 332.293 61.192,332.002 60.944,331.883 60.701 C 331.765 60.457,331.435 60.182,331.150 60.089 C 330.866 59.996,330.512 59.782,330.365 59.614 C 330.217 59.446,329.868 59.252,329.589 59.184 C 329.310 59.116,328.871 58.885,328.612 58.670 C 328.354 58.455,327.905 58.228,327.614 58.164 C 327.323 58.100,326.911 57.874,326.698 57.661 C 326.455 57.418,325.996 57.230,325.466 57.158 C 324.985 57.092,324.460 56.891,324.247 56.691 C 324.005 56.463,323.455 56.277,322.686 56.161 C 322.034 56.063,321.415 55.875,321.313 55.745 C 320.899 55.216,320.140 55.149,314.810 55.169 C 311.854 55.180,309.280 55.226,309.091 55.272 " stroke="none" fill="#048404" fill-rule="evenodd"></path><path id="path2" d="M0.000 86.170 L 0.000 172.340 200.000 172.340 L 400.000 172.340 400.000 86.170 L 400.000 0.000 200.000 0.000 L 0.000 0.000 0.000 86.170 M318.656 39.470 C 321.706 39.612,322.635 39.719,323.911 40.071 C 324.763 40.307,325.648 40.500,325.876 40.500 C 326.105 40.500,326.687 40.684,327.170 40.910 C 327.653 41.135,328.490 41.373,329.030 41.438 C 329.570 41.503,330.194 41.699,330.416 41.874 C 330.638 42.048,331.204 42.245,331.674 42.311 C 332.144 42.377,332.801 42.602,333.132 42.811 C 333.464 43.020,334.007 43.296,334.339 43.425 C 334.670 43.553,335.058 43.757,335.200 43.876 C 335.343 43.996,335.827 44.252,336.277 44.445 C 336.728 44.638,337.096 44.870,337.096 44.961 C 337.096 45.052,337.387 45.219,337.742 45.332 C 338.098 45.445,338.566 45.722,338.783 45.948 C 339.000 46.174,339.291 46.359,339.428 46.359 C 339.904 46.359,342.078 48.068,345.626 51.231 C 347.692 53.073,350.743 56.316,350.850 56.786 C 350.879 56.913,351.093 57.142,351.324 57.294 C 351.556 57.445,351.745 57.679,351.745 57.814 C 351.745 57.949,351.888 58.160,352.064 58.284 C 352.239 58.408,352.503 58.742,352.649 59.027 C 352.796 59.311,353.075 59.688,353.269 59.863 C 353.462 60.039,353.669 60.400,353.728 60.667 C 353.786 60.934,353.942 61.193,354.074 61.244 C 354.206 61.294,354.481 61.702,354.685 62.150 C 354.889 62.598,355.162 63.071,355.291 63.201 C 355.421 63.330,355.624 63.762,355.742 64.161 C 355.861 64.560,356.086 65.002,356.243 65.144 C 356.399 65.287,356.623 65.766,356.741 66.210 C 356.858 66.655,357.055 67.057,357.178 67.104 C 357.302 67.152,357.497 67.641,357.611 68.192 C 357.725 68.743,357.960 69.373,358.133 69.592 C 358.305 69.811,358.538 70.432,358.651 70.971 C 358.764 71.511,359.005 72.276,359.187 72.672 C 359.370 73.068,359.587 74.049,359.670 74.853 C 359.753 75.657,359.950 76.690,360.107 77.149 C 360.590 78.551,360.740 81.487,360.659 87.893 C 360.584 93.809,360.519 94.566,360.005 95.519 C 359.915 95.685,359.770 96.521,359.681 97.377 C 359.592 98.233,359.397 99.181,359.246 99.483 C 359.095 99.785,358.858 100.577,358.720 101.244 C 358.581 101.910,358.320 102.654,358.141 102.897 C 357.962 103.140,357.722 103.785,357.609 104.330 C 357.496 104.875,357.301 105.360,357.177 105.408 C 357.052 105.456,356.859 105.858,356.748 106.302 C 356.637 106.746,356.406 107.264,356.235 107.454 C 356.064 107.643,355.832 108.083,355.721 108.431 C 355.610 108.779,355.406 109.157,355.267 109.272 C 355.129 109.387,354.865 109.821,354.681 110.236 C 354.498 110.651,354.232 111.035,354.091 111.089 C 353.950 111.143,353.783 111.419,353.721 111.702 C 353.659 111.985,353.496 112.259,353.359 112.312 C 353.221 112.365,352.946 112.728,352.747 113.119 C 352.548 113.510,352.241 113.932,352.065 114.055 C 351.889 114.179,351.745 114.391,351.745 114.525 C 351.745 114.660,351.551 114.897,351.314 115.052 C 351.077 115.208,350.883 115.431,350.883 115.549 C 350.883 115.667,350.437 116.241,349.892 116.824 C 348.958 117.824,347.832 119.097,347.619 119.393 C 347.566 119.467,346.786 120.169,345.885 120.954 C 344.985 121.739,343.869 122.726,343.406 123.147 C 342.943 123.568,342.509 123.912,342.441 123.912 C 342.372 123.912,342.106 124.107,341.849 124.345 C 341.592 124.583,341.077 124.934,340.704 125.124 C 340.331 125.315,340.026 125.539,340.026 125.622 C 340.026 125.706,339.783 125.859,339.487 125.962 C 339.190 126.066,338.758 126.340,338.526 126.571 C 338.294 126.803,337.877 127.042,337.599 127.103 C 337.321 127.165,337.021 127.349,336.933 127.514 C 336.845 127.679,336.454 127.919,336.064 128.048 C 335.674 128.176,335.315 128.346,335.266 128.426 C 335.145 128.622,334.021 129.082,333.662 129.082 C 333.502 129.082,333.122 129.266,332.817 129.491 C 332.512 129.717,331.887 129.950,331.428 130.011 C 330.969 130.072,330.421 130.271,330.211 130.453 C 329.841 130.775,329.655 130.832,328.240 131.065 C 327.872 131.125,327.368 131.316,327.120 131.488 C 326.872 131.661,326.049 131.899,325.291 132.018 C 324.533 132.138,323.819 132.307,323.705 132.396 C 322.872 133.045,323.363 133.042,200.202 133.044 C 82.751 133.046,78.282 133.026,76.777 132.503 C 76.493 132.404,75.532 132.178,74.642 132.000 C 73.752 131.822,72.898 131.563,72.744 131.424 C 72.590 131.285,71.984 131.094,71.397 130.999 C 70.810 130.905,70.113 130.673,69.848 130.484 C 69.583 130.296,68.916 130.051,68.365 129.942 C 67.811 129.832,67.321 129.633,67.269 129.498 C 67.217 129.363,66.868 129.204,66.493 129.144 C 66.118 129.084,65.559 128.864,65.251 128.654 C 64.943 128.445,64.495 128.225,64.257 128.165 C 64.018 128.105,63.528 127.822,63.167 127.535 C 62.807 127.249,62.412 127.014,62.290 127.014 C 62.168 127.014,61.836 126.818,61.551 126.579 C 61.267 126.339,60.796 126.060,60.504 125.959 C 60.213 125.857,59.974 125.706,59.974 125.623 C 59.974 125.540,59.722 125.343,59.414 125.185 C 59.106 125.027,58.583 124.678,58.251 124.409 C 57.919 124.140,57.426 123.744,57.155 123.528 C 56.884 123.313,56.426 122.923,56.138 122.663 C 55.850 122.402,55.562 122.189,55.498 122.189 C 55.107 122.189,50.668 117.523,48.775 115.123 C 48.588 114.886,48.209 114.437,47.933 114.125 C 47.656 113.814,47.335 113.329,47.218 113.048 C 47.102 112.767,46.935 112.538,46.847 112.538 C 46.759 112.538,46.566 112.247,46.418 111.891 C 46.271 111.536,46.042 111.183,45.910 111.108 C 45.779 111.032,45.520 110.638,45.334 110.231 C 45.149 109.825,44.885 109.399,44.748 109.284 C 44.610 109.170,44.446 108.867,44.384 108.610 C 44.321 108.353,44.096 107.872,43.884 107.540 C 43.672 107.208,43.402 106.607,43.284 106.204 C 43.167 105.801,43.006 105.472,42.927 105.472 C 42.743 105.472,42.453 104.715,42.313 103.868 C 42.253 103.507,42.064 103.072,41.893 102.901 C 41.720 102.728,41.483 102.062,41.359 101.403 C 41.237 100.750,41.035 100.059,40.911 99.868 C 40.786 99.676,40.599 98.939,40.494 98.230 C 40.257 96.623,40.092 95.843,39.715 94.528 C 39.291 93.052,39.276 79.811,39.696 78.070 C 40.138 76.241,40.293 75.469,40.494 74.109 C 40.599 73.400,40.786 72.663,40.911 72.472 C 41.035 72.281,41.236 71.698,41.358 71.176 C 41.589 70.187,41.830 69.605,42.075 69.444 C 42.154 69.392,42.299 68.930,42.396 68.419 C 42.493 67.907,42.718 67.330,42.896 67.135 C 43.074 66.941,43.277 66.510,43.346 66.178 C 43.416 65.847,43.607 65.381,43.772 65.144 C 43.937 64.907,44.240 64.364,44.446 63.938 C 45.266 62.235,45.711 61.436,45.873 61.377 C 45.967 61.343,46.189 60.974,46.368 60.558 C 46.546 60.142,46.771 59.802,46.868 59.802 C 46.965 59.802,47.156 59.535,47.292 59.208 C 47.429 58.881,47.701 58.514,47.898 58.391 C 48.094 58.268,48.255 58.076,48.255 57.963 C 48.255 57.851,48.449 57.606,48.686 57.420 C 48.923 57.233,49.117 57.009,49.117 56.921 C 49.117 56.768,49.698 56.053,50.558 55.149 C 50.784 54.912,51.347 54.283,51.809 53.752 C 52.271 53.221,53.386 52.140,54.287 51.351 C 55.187 50.561,56.026 49.774,56.149 49.602 C 56.273 49.430,56.455 49.289,56.554 49.289 C 56.653 49.289,56.953 49.076,57.220 48.815 C 58.284 47.778,59.551 46.867,60.620 46.368 C 61.023 46.180,61.353 45.957,61.353 45.871 C 61.353 45.786,61.741 45.555,62.215 45.358 C 62.688 45.161,63.076 44.924,63.076 44.831 C 63.076 44.738,63.343 44.575,63.669 44.467 C 63.995 44.360,64.440 44.132,64.660 43.962 C 64.879 43.791,65.336 43.561,65.677 43.450 C 66.017 43.340,66.542 43.067,66.844 42.844 C 67.154 42.615,67.774 42.388,68.269 42.323 C 68.751 42.259,69.350 42.059,69.600 41.879 C 69.862 41.691,70.587 41.480,71.303 41.385 C 71.997 41.292,72.669 41.100,72.817 40.952 C 72.963 40.805,73.371 40.639,73.724 40.581 C 74.387 40.473,76.093 40.093,77.294 39.786 C 77.673 39.689,79.302 39.550,80.913 39.478 C 85.490 39.273,314.271 39.265,318.656 39.470 " stroke="none" fill="#fbfbfb" fill-rule="evenodd"></path><path id="path3" d="M80.224 39.820 C 79.371 39.893,78.091 40.071,77.380 40.216 C 76.670 40.362,75.700 40.533,75.226 40.598 C 74.752 40.662,73.938 40.889,73.417 41.103 C 72.895 41.316,72.083 41.547,71.611 41.615 C 71.139 41.683,70.477 41.880,70.138 42.053 C 69.800 42.225,69.216 42.418,68.842 42.480 C 68.155 42.595,65.060 44.010,64.888 44.288 C 64.837 44.370,64.560 44.489,64.273 44.552 C 63.985 44.615,63.548 44.854,63.302 45.082 C 63.055 45.311,62.759 45.498,62.644 45.498 C 62.529 45.498,62.142 45.730,61.784 46.015 C 61.426 46.299,61.053 46.532,60.954 46.532 C 60.247 46.532,54.906 50.986,52.396 53.668 C 51.872 54.228,50.998 55.158,50.453 55.736 C 49.909 56.313,49.463 56.852,49.462 56.933 C 49.462 57.015,49.268 57.233,49.031 57.420 C 48.794 57.606,48.600 57.841,48.600 57.941 C 48.600 58.041,48.348 58.410,48.040 58.761 C 47.732 59.113,47.324 59.662,47.135 59.983 C 46.426 61.181,46.144 61.614,46.018 61.698 C 45.946 61.745,45.731 62.094,45.541 62.473 C 43.147 67.226,42.568 68.475,42.568 68.885 C 42.568 69.074,42.383 69.577,42.157 70.002 C 41.931 70.427,41.664 71.117,41.564 71.535 C 41.463 71.954,41.226 72.839,41.037 73.503 C 39.585 78.590,39.142 89.891,40.200 94.841 C 40.460 96.056,40.672 97.240,40.672 97.473 C 40.672 97.705,40.854 98.417,41.077 99.055 C 41.300 99.693,41.539 100.603,41.609 101.077 C 41.679 101.551,41.881 102.174,42.057 102.461 C 42.233 102.749,42.462 103.360,42.565 103.821 C 42.668 104.281,42.905 104.851,43.091 105.088 C 43.277 105.325,43.430 105.595,43.430 105.690 C 43.430 105.927,44.887 108.802,45.590 109.953 C 45.909 110.474,46.332 111.172,46.530 111.504 C 47.161 112.560,48.337 114.115,50.049 116.157 C 51.961 118.437,55.586 121.966,57.475 123.386 C 57.854 123.671,58.320 124.053,58.509 124.234 C 58.699 124.415,59.125 124.699,59.457 124.865 C 59.789 125.031,60.280 125.350,60.547 125.574 C 60.815 125.797,61.133 125.980,61.253 125.980 C 61.373 125.980,61.606 126.128,61.769 126.309 C 61.933 126.490,62.314 126.738,62.615 126.861 C 62.916 126.983,63.259 127.217,63.378 127.380 C 63.497 127.543,63.846 127.731,64.154 127.798 C 64.462 127.864,64.912 128.059,65.155 128.231 C 65.398 128.402,65.824 128.597,66.103 128.665 C 66.381 128.732,67.036 128.997,67.557 129.254 C 68.078 129.510,68.893 129.815,69.367 129.931 C 69.841 130.047,70.345 130.245,70.487 130.370 C 70.629 130.495,71.211 130.691,71.779 130.806 C 72.348 130.921,73.124 131.153,73.503 131.321 C 73.882 131.489,75.433 131.849,76.950 132.121 L 79.707 132.615 200.172 132.615 L 320.638 132.615 323.418 132.070 C 324.948 131.770,326.421 131.410,326.693 131.271 C 326.964 131.131,327.640 130.924,328.194 130.810 C 328.748 130.695,329.446 130.460,329.745 130.286 C 330.044 130.112,330.584 129.915,330.944 129.850 C 331.305 129.784,332.037 129.507,332.570 129.234 C 333.104 128.961,333.655 128.738,333.795 128.738 C 333.935 128.738,334.367 128.554,334.754 128.329 C 335.142 128.104,335.653 127.862,335.890 127.791 C 336.127 127.721,336.462 127.539,336.634 127.387 C 336.993 127.071,337.855 126.537,339.035 125.900 C 339.485 125.656,339.854 125.395,339.854 125.320 C 339.854 125.244,340.138 125.047,340.486 124.881 C 341.142 124.568,341.760 124.135,342.607 123.395 C 342.879 123.158,343.592 122.542,344.192 122.026 C 345.490 120.910,348.573 117.825,349.715 116.499 C 350.930 115.089,352.607 112.912,352.607 112.745 C 352.607 112.664,352.801 112.416,353.037 112.193 C 353.274 111.970,353.468 111.696,353.468 111.583 C 353.468 111.471,353.701 111.086,353.985 110.728 C 354.270 110.370,354.502 109.999,354.502 109.902 C 354.502 109.806,354.682 109.487,354.901 109.193 C 355.120 108.900,355.405 108.389,355.534 108.057 C 355.663 107.725,355.900 107.260,356.060 107.023 C 356.219 106.786,356.451 106.282,356.574 105.903 C 356.697 105.523,356.933 105.019,357.099 104.782 C 357.264 104.545,357.450 104.057,357.512 103.697 C 357.573 103.337,357.813 102.685,358.045 102.249 C 358.277 101.813,358.466 101.278,358.466 101.060 C 358.466 100.842,358.654 100.059,358.884 99.320 C 359.114 98.580,359.422 97.238,359.569 96.338 C 359.715 95.437,359.962 94.041,360.118 93.236 C 360.448 91.529,360.529 82.083,360.231 80.138 C 359.632 76.231,359.111 73.488,358.834 72.775 C 358.658 72.322,358.457 71.642,358.389 71.262 C 358.321 70.883,358.123 70.340,357.949 70.056 C 357.776 69.772,357.577 69.235,357.508 68.863 C 357.439 68.492,357.176 67.794,356.922 67.312 C 356.669 66.831,356.371 66.204,356.260 65.920 C 356.149 65.636,355.982 65.287,355.890 65.144 C 355.797 65.002,355.574 64.576,355.393 64.196 C 354.866 63.088,354.161 61.843,353.802 61.386 C 353.618 61.153,353.468 60.885,353.468 60.792 C 353.468 60.699,353.255 60.367,352.994 60.054 C 352.734 59.741,352.252 59.111,351.923 58.653 C 350.259 56.334,347.671 53.523,344.851 50.972 C 342.653 48.982,341.512 48.058,340.198 47.203 C 337.991 45.766,337.544 45.498,337.352 45.498 C 337.241 45.498,337.012 45.345,336.843 45.159 C 336.675 44.973,336.256 44.731,335.912 44.621 C 335.568 44.510,335.170 44.326,335.028 44.212 C 334.505 43.791,331.819 42.588,331.158 42.479 C 330.784 42.417,330.200 42.225,329.862 42.053 C 329.523 41.880,328.861 41.684,328.389 41.617 C 327.917 41.550,327.182 41.345,326.756 41.160 C 325.756 40.728,321.861 40.006,319.431 39.802 C 317.127 39.609,82.486 39.626,80.224 39.820 M317.277 39.974 C 318.651 40.059,319.996 40.213,320.266 40.316 C 320.535 40.419,321.737 40.590,322.937 40.695 C 324.394 40.823,325.327 40.993,325.748 41.206 C 326.095 41.381,326.978 41.648,327.711 41.799 C 328.445 41.951,329.210 42.183,329.412 42.315 C 329.614 42.448,330.359 42.677,331.068 42.825 C 331.777 42.972,332.437 43.199,332.535 43.329 C 332.633 43.459,333.059 43.665,333.483 43.787 C 333.906 43.909,334.389 44.147,334.555 44.316 C 334.721 44.485,335.184 44.711,335.585 44.819 C 335.985 44.927,336.415 45.162,336.541 45.342 C 336.668 45.523,336.847 45.670,336.940 45.670 C 337.033 45.670,337.513 45.941,338.005 46.273 C 338.498 46.605,338.987 46.876,339.092 46.876 C 339.197 46.876,339.429 47.038,339.608 47.235 C 339.787 47.433,340.199 47.706,340.526 47.842 C 340.852 47.978,341.226 48.243,341.357 48.431 C 341.489 48.619,341.677 48.772,341.776 48.772 C 341.875 48.772,342.171 48.985,342.435 49.246 C 342.698 49.507,343.440 50.185,344.083 50.754 C 346.267 52.685,350.366 56.891,350.366 57.201 C 350.366 57.300,350.560 57.508,350.797 57.663 C 351.034 57.819,351.228 58.036,351.228 58.146 C 351.228 58.345,352.363 59.979,352.871 60.513 C 353.152 60.807,353.722 61.804,354.311 63.033 C 354.504 63.436,354.740 63.766,354.834 63.766 C 354.929 63.766,355.095 64.095,355.203 64.496 C 355.311 64.898,355.554 65.444,355.742 65.708 C 355.930 65.972,356.162 66.470,356.257 66.814 C 356.352 67.158,356.608 67.718,356.827 68.058 C 357.046 68.399,357.275 69.040,357.337 69.484 C 357.399 69.927,357.595 70.475,357.772 70.700 C 357.949 70.925,358.181 71.609,358.287 72.220 C 358.393 72.831,358.627 73.681,358.806 74.110 C 358.990 74.551,359.181 75.560,359.246 76.436 C 359.309 77.287,359.525 78.682,359.726 79.535 C 360.232 81.688,360.276 91.402,359.785 92.789 C 359.620 93.254,359.404 94.495,359.303 95.547 C 359.195 96.683,358.986 97.769,358.788 98.225 C 358.605 98.646,358.379 99.532,358.285 100.192 C 358.191 100.852,357.965 101.634,357.783 101.929 C 357.600 102.225,357.364 102.851,357.259 103.320 C 357.154 103.790,356.963 104.291,356.835 104.435 C 356.707 104.579,356.465 105.117,356.298 105.631 C 356.131 106.144,355.861 106.699,355.697 106.862 C 355.533 107.026,355.342 107.420,355.273 107.738 C 355.204 108.055,354.969 108.528,354.750 108.788 C 354.532 109.049,354.299 109.436,354.232 109.650 C 354.165 109.864,353.927 110.258,353.703 110.526 C 353.479 110.794,353.296 111.101,353.296 111.209 C 353.296 111.317,353.140 111.563,352.950 111.756 C 352.383 112.331,351.228 113.977,351.228 114.209 C 351.228 114.328,351.034 114.553,350.797 114.708 C 350.560 114.863,350.366 115.075,350.366 115.179 C 350.366 115.283,350.172 115.565,349.934 115.806 C 349.696 116.046,348.314 117.445,346.862 118.914 C 345.411 120.383,343.880 121.880,343.460 122.241 C 343.040 122.601,342.539 123.047,342.346 123.232 C 342.153 123.416,341.921 123.569,341.829 123.570 C 341.738 123.572,341.401 123.804,341.080 124.087 C 340.759 124.370,340.394 124.601,340.269 124.601 C 340.144 124.601,339.848 124.795,339.611 125.032 C 339.374 125.269,339.107 125.463,339.019 125.463 C 338.931 125.463,338.464 125.735,337.981 126.066 C 337.499 126.398,337.049 126.670,336.980 126.670 C 336.912 126.670,336.658 126.852,336.416 127.075 C 336.174 127.298,335.612 127.578,335.168 127.698 C 334.724 127.817,334.322 128.015,334.275 128.137 C 334.228 128.259,333.788 128.446,333.297 128.551 C 332.805 128.656,332.199 128.886,331.949 129.061 C 331.699 129.236,331.069 129.477,330.547 129.596 C 330.026 129.716,329.352 129.963,329.049 130.145 C 328.746 130.328,328.031 130.552,327.460 130.644 C 326.888 130.736,326.162 130.964,325.847 131.150 C 325.427 131.398,324.697 131.539,323.128 131.675 C 321.948 131.777,320.595 131.992,320.121 132.152 C 318.783 132.604,81.430 132.602,79.966 132.151 C 79.444 131.990,78.056 131.776,76.880 131.674 C 75.312 131.539,74.599 131.402,74.204 131.158 C 73.909 130.975,73.180 130.747,72.584 130.651 C 71.989 130.555,71.254 130.328,70.951 130.145 C 70.648 129.963,69.974 129.715,69.453 129.595 C 68.931 129.475,68.330 129.240,68.115 129.074 C 67.901 128.907,67.319 128.675,66.823 128.558 C 66.326 128.440,65.861 128.244,65.789 128.122 C 65.716 127.999,65.251 127.781,64.755 127.636 C 64.258 127.491,63.717 127.215,63.552 127.021 C 63.387 126.828,63.147 126.670,63.018 126.670 C 62.890 126.670,62.654 126.525,62.495 126.349 C 62.335 126.172,61.881 125.882,61.487 125.704 C 61.092 125.526,60.594 125.205,60.379 124.991 C 60.165 124.777,59.900 124.601,59.789 124.601 C 59.679 124.601,59.324 124.369,59.000 124.084 C 58.676 123.800,58.326 123.567,58.221 123.567 C 58.117 123.567,57.856 123.393,57.640 123.180 C 57.425 122.966,56.721 122.327,56.075 121.758 C 53.524 119.511,49.366 115.116,48.721 113.984 C 48.406 113.433,47.447 112.151,47.054 111.756 C 46.861 111.563,46.702 111.292,46.699 111.153 C 46.697 111.014,46.464 110.596,46.182 110.224 C 45.900 109.851,45.670 109.456,45.670 109.345 C 45.670 109.235,45.515 109.004,45.325 108.832 C 45.135 108.660,44.895 108.202,44.792 107.814 C 44.689 107.426,44.463 106.954,44.289 106.764 C 44.115 106.575,43.918 106.187,43.851 105.903 C 43.785 105.618,43.518 104.998,43.257 104.524 C 42.997 104.050,42.740 103.370,42.686 103.013 C 42.633 102.656,42.433 102.167,42.243 101.925 C 42.012 101.631,41.858 101.086,41.778 100.281 C 41.713 99.619,41.513 98.790,41.334 98.440 C 41.140 98.062,40.933 97.103,40.825 96.079 C 40.725 95.131,40.500 93.735,40.327 92.977 C 39.742 90.426,39.743 81.026,40.328 79.535 C 40.440 79.250,40.635 78.009,40.761 76.777 C 40.904 75.381,41.119 74.245,41.330 73.761 C 41.516 73.335,41.723 72.599,41.790 72.126 C 41.857 71.654,42.098 70.949,42.326 70.560 C 42.554 70.171,42.740 69.637,42.740 69.372 C 42.740 69.108,42.965 68.494,43.239 68.009 C 43.513 67.523,43.789 66.882,43.852 66.584 C 43.915 66.286,44.108 65.914,44.281 65.757 C 44.454 65.600,44.697 65.107,44.820 64.662 C 44.943 64.216,45.176 63.757,45.337 63.640 C 45.499 63.524,45.683 63.219,45.748 62.963 C 45.812 62.706,46.054 62.272,46.284 61.997 C 46.515 61.723,46.704 61.354,46.704 61.177 C 46.704 61.000,46.847 60.754,47.021 60.630 C 47.196 60.506,47.534 60.094,47.773 59.713 C 48.013 59.333,48.335 58.916,48.490 58.787 C 48.645 58.659,48.772 58.458,48.772 58.341 C 48.772 58.225,48.985 57.895,49.246 57.609 C 52.941 53.554,53.171 53.318,55.511 51.185 C 56.395 50.379,57.327 49.507,57.581 49.246 C 57.836 48.985,58.100 48.772,58.168 48.772 C 58.236 48.772,58.556 48.539,58.880 48.255 C 59.204 47.971,59.583 47.738,59.723 47.738 C 59.862 47.738,60.145 47.544,60.351 47.307 C 60.557 47.070,60.819 46.876,60.934 46.876 C 61.048 46.876,61.521 46.616,61.984 46.297 C 62.447 45.979,62.991 45.665,63.194 45.601 C 63.396 45.537,63.603 45.375,63.655 45.242 C 63.706 45.108,64.081 44.910,64.489 44.802 C 64.897 44.694,65.386 44.463,65.575 44.289 C 65.765 44.115,66.153 43.919,66.437 43.853 C 66.721 43.788,67.225 43.557,67.557 43.339 C 67.889 43.122,68.509 42.892,68.936 42.828 C 69.362 42.763,70.022 42.568,70.401 42.394 C 71.231 42.012,72.323 41.708,72.867 41.707 C 73.086 41.707,73.668 41.520,74.160 41.293 C 74.821 40.988,75.601 40.831,77.155 40.690 C 78.311 40.585,79.475 40.415,79.740 40.313 C 80.006 40.211,81.155 40.068,82.292 39.994 C 85.229 39.805,314.213 39.785,317.277 39.974 " stroke="none" fill="#848484" fill-rule="evenodd"></path><path id="path4" d="M80.913 39.478 C 79.302 39.550,77.673 39.689,77.294 39.786 C 76.093 40.093,74.387 40.473,73.724 40.581 C 73.371 40.639,72.963 40.805,72.817 40.952 C 72.669 41.100,71.997 41.292,71.303 41.385 C 70.587 41.480,69.862 41.691,69.600 41.879 C 69.350 42.059,68.751 42.259,68.269 42.323 C 67.774 42.388,67.154 42.615,66.844 42.844 C 66.542 43.067,66.017 43.340,65.677 43.450 C 65.336 43.561,64.879 43.791,64.660 43.962 C 64.440 44.132,63.995 44.360,63.669 44.467 C 63.343 44.575,63.076 44.738,63.076 44.831 C 63.076 44.924,62.688 45.161,62.215 45.358 C 61.741 45.555,61.353 45.786,61.353 45.871 C 61.353 45.957,61.023 46.180,60.620 46.368 C 59.551 46.867,58.284 47.778,57.220 48.815 C 56.953 49.076,56.653 49.289,56.554 49.289 C 56.455 49.289,56.273 49.430,56.149 49.602 C 56.026 49.774,55.187 50.561,54.287 51.351 C 53.386 52.140,52.271 53.221,51.809 53.752 C 51.347 54.283,50.784 54.912,50.558 55.149 C 49.698 56.053,49.117 56.768,49.117 56.921 C 49.117 57.009,48.923 57.233,48.686 57.420 C 48.449 57.606,48.255 57.851,48.255 57.963 C 48.255 58.076,48.094 58.268,47.898 58.391 C 47.701 58.514,47.429 58.881,47.292 59.208 C 47.156 59.535,46.965 59.802,46.868 59.802 C 46.771 59.802,46.546 60.142,46.368 60.558 C 46.189 60.974,45.967 61.343,45.873 61.377 C 45.711 61.436,45.266 62.235,44.446 63.938 C 44.240 64.364,43.937 64.907,43.772 65.144 C 43.607 65.381,43.416 65.847,43.346 66.178 C 43.277 66.510,43.074 66.941,42.896 67.135 C 42.718 67.330,42.493 67.907,42.396 68.419 C 42.299 68.930,42.154 69.392,42.075 69.444 C 41.830 69.605,41.589 70.187,41.358 71.176 C 41.236 71.698,41.035 72.281,40.911 72.472 C 40.786 72.663,40.599 73.400,40.494 74.109 C 40.293 75.469,40.138 76.241,39.696 78.070 C 39.276 79.811,39.291 93.052,39.715 94.528 C 40.092 95.843,40.257 96.623,40.494 98.230 C 40.599 98.939,40.786 99.676,40.911 99.868 C 41.035 100.059,41.237 100.750,41.359 101.403 C 41.483 102.062,41.720 102.728,41.893 102.901 C 42.064 103.072,42.253 103.507,42.313 103.868 C 42.453 104.715,42.743 105.472,42.927 105.472 C 43.006 105.472,43.167 105.801,43.284 106.204 C 43.402 106.607,43.672 107.208,43.884 107.540 C 44.096 107.872,44.321 108.353,44.384 108.610 C 44.446 108.867,44.610 109.170,44.748 109.284 C 44.885 109.399,45.149 109.825,45.334 110.231 C 45.520 110.638,45.779 111.032,45.910 111.108 C 46.042 111.183,46.271 111.536,46.418 111.891 C 46.566 112.247,46.759 112.538,46.847 112.538 C 46.935 112.538,47.102 112.767,47.218 113.048 C 47.335 113.329,47.656 113.814,47.933 114.125 C 48.209 114.437,48.588 114.886,48.775 115.123 C 50.668 117.523,55.107 122.189,55.498 122.189 C 55.562 122.189,55.850 122.402,56.138 122.663 C 56.426 122.923,56.884 123.313,57.155 123.528 C 57.426 123.744,57.919 124.140,58.251 124.409 C 58.583 124.678,59.106 125.027,59.414 125.185 C 59.722 125.343,59.974 125.540,59.974 125.623 C 59.974 125.706,60.213 125.857,60.504 125.959 C 60.796 126.060,61.267 126.339,61.551 126.579 C 61.836 126.818,62.168 127.014,62.290 127.014 C 62.412 127.014,62.807 127.249,63.167 127.535 C 63.528 127.822,64.018 128.105,64.257 128.165 C 64.495 128.225,64.943 128.445,65.251 128.654 C 65.559 128.864,66.118 129.084,66.493 129.144 C 66.868 129.204,67.217 129.363,67.269 129.498 C 67.321 129.633,67.811 129.832,68.365 129.942 C 68.916 130.051,69.583 130.296,69.848 130.484 C 70.113 130.673,70.810 130.905,71.397 130.999 C 71.984 131.094,72.590 131.285,72.744 131.424 C 72.898 131.563,73.752 131.822,74.642 132.000 C 75.532 132.178,76.493 132.404,76.777 132.503 C 78.282 133.026,82.751 133.046,200.202 133.044 C 323.363 133.042,322.872 133.045,323.705 132.396 C 323.819 132.307,324.533 132.138,325.291 132.018 C 326.049 131.899,326.872 131.661,327.120 131.488 C 327.368 131.316,327.872 131.125,328.240 131.065 C 329.655 130.832,329.841 130.775,330.211 130.453 C 330.421 130.271,330.969 130.072,331.428 130.011 C 331.887 129.950,332.512 129.717,332.817 129.491 C 333.122 129.266,333.502 129.082,333.662 129.082 C 334.021 129.082,335.145 128.622,335.266 128.426 C 335.315 128.346,335.674 128.176,336.064 128.048 C 336.454 127.919,336.845 127.679,336.933 127.514 C 337.021 127.349,337.321 127.165,337.599 127.103 C 337.877 127.042,338.294 126.803,338.526 126.571 C 338.758 126.340,339.190 126.066,339.487 125.962 C 339.783 125.859,340.026 125.706,340.026 125.622 C 340.026 125.539,340.331 125.315,340.704 125.124 C 341.077 124.934,341.592 124.583,341.849 124.345 C 342.106 124.107,342.372 123.912,342.441 123.912 C 342.509 123.912,342.943 123.568,343.406 123.147 C 343.869 122.726,344.985 121.739,345.885 120.954 C 346.786 120.169,347.566 119.467,347.619 119.393 C 347.832 119.097,348.958 117.824,349.892 116.824 C 350.437 116.241,350.883 115.667,350.883 115.549 C 350.883 115.431,351.077 115.208,351.314 115.052 C 351.551 114.897,351.745 114.660,351.745 114.525 C 351.745 114.391,351.889 114.179,352.065 114.055 C 352.241 113.932,352.548 113.510,352.747 113.119 C 352.946 112.728,353.221 112.365,353.359 112.312 C 353.496 112.259,353.659 111.985,353.721 111.702 C 353.783 111.419,353.950 111.143,354.091 111.089 C 354.232 111.035,354.498 110.651,354.681 110.236 C 354.865 109.821,355.129 109.387,355.267 109.272 C 355.406 109.157,355.610 108.779,355.721 108.431 C 355.832 108.083,356.064 107.643,356.235 107.454 C 356.406 107.264,356.637 106.746,356.748 106.302 C 356.859 105.858,357.052 105.456,357.177 105.408 C 357.301 105.360,357.496 104.875,357.609 104.330 C 357.722 103.785,357.962 103.140,358.141 102.897 C 358.320 102.654,358.581 101.910,358.720 101.244 C 358.858 100.577,359.095 99.785,359.246 99.483 C 359.397 99.181,359.592 98.233,359.681 97.377 C 359.770 96.521,359.915 95.685,360.005 95.519 C 360.519 94.566,360.584 93.809,360.659 87.893 C 360.740 81.487,360.590 78.551,360.107 77.149 C 359.950 76.690,359.753 75.657,359.670 74.853 C 359.587 74.049,359.370 73.068,359.187 72.672 C 359.005 72.276,358.764 71.511,358.651 70.971 C 358.538 70.432,358.305 69.811,358.133 69.592 C 357.960 69.373,357.725 68.743,357.611 68.192 C 357.497 67.641,357.302 67.152,357.178 67.104 C 357.055 67.057,356.858 66.655,356.741 66.210 C 356.623 65.766,356.399 65.287,356.243 65.144 C 356.086 65.002,355.861 64.560,355.742 64.161 C 355.624 63.762,355.421 63.330,355.291 63.201 C 355.162 63.071,354.889 62.598,354.685 62.150 C 354.481 61.702,354.206 61.294,354.074 61.244 C 353.942 61.193,353.786 60.934,353.728 60.667 C 353.669 60.400,353.462 60.039,353.269 59.863 C 353.075 59.688,352.796 59.311,352.649 59.027 C 352.503 58.742,352.239 58.408,352.064 58.284 C 351.888 58.160,351.745 57.949,351.745 57.814 C 351.745 57.679,351.556 57.445,351.324 57.294 C 351.093 57.142,350.879 56.913,350.850 56.786 C 350.743 56.316,347.692 53.073,345.626 51.231 C 342.078 48.068,339.904 46.359,339.428 46.359 C 339.291 46.359,339.000 46.174,338.783 45.948 C 338.566 45.722,338.098 45.445,337.742 45.332 C 337.387 45.219,337.096 45.052,337.096 44.961 C 337.096 44.870,336.728 44.638,336.277 44.445 C 335.827 44.252,335.343 43.996,335.200 43.876 C 335.058 43.757,334.670 43.553,334.339 43.425 C 334.007 43.296,333.464 43.020,333.132 42.811 C 332.801 42.602,332.144 42.377,331.674 42.311 C 331.204 42.245,330.638 42.048,330.416 41.874 C 330.194 41.699,329.570 41.503,329.030 41.438 C 328.490 41.373,327.653 41.135,327.170 40.910 C 326.687 40.684,326.105 40.500,325.876 40.500 C 325.648 40.500,324.763 40.307,323.911 40.071 C 322.635 39.719,321.706 39.612,318.656 39.470 C 314.271 39.265,85.490 39.273,80.913 39.478 M319.431 39.802 C 321.861 40.006,325.756 40.728,326.756 41.160 C 327.182 41.345,327.917 41.550,328.389 41.617 C 328.861 41.684,329.523 41.880,329.862 42.053 C 330.200 42.225,330.784 42.417,331.158 42.479 C 331.819 42.588,334.505 43.791,335.028 44.212 C 335.170 44.326,335.568 44.510,335.912 44.621 C 336.256 44.731,336.675 44.973,336.843 45.159 C 337.012 45.345,337.241 45.498,337.352 45.498 C 337.544 45.498,337.991 45.766,340.198 47.203 C 341.512 48.058,342.653 48.982,344.851 50.972 C 347.671 53.523,350.259 56.334,351.923 58.653 C 352.252 59.111,352.734 59.741,352.994 60.054 C 353.255 60.367,353.468 60.699,353.468 60.792 C 353.468 60.885,353.618 61.153,353.802 61.386 C 354.161 61.843,354.866 63.088,355.393 64.196 C 355.574 64.576,355.797 65.002,355.890 65.144 C 355.982 65.287,356.149 65.636,356.260 65.920 C 356.371 66.204,356.669 66.831,356.922 67.312 C 357.176 67.794,357.439 68.492,357.508 68.863 C 357.577 69.235,357.776 69.772,357.949 70.056 C 358.123 70.340,358.321 70.883,358.389 71.262 C 358.457 71.642,358.658 72.322,358.834 72.775 C 359.111 73.488,359.632 76.231,360.231 80.138 C 360.529 82.083,360.448 91.529,360.118 93.236 C 359.962 94.041,359.715 95.437,359.569 96.338 C 359.422 97.238,359.114 98.580,358.884 99.320 C 358.654 100.059,358.466 100.842,358.466 101.060 C 358.466 101.278,358.277 101.813,358.045 102.249 C 357.813 102.685,357.573 103.337,357.512 103.697 C 357.450 104.057,357.264 104.545,357.099 104.782 C 356.933 105.019,356.697 105.523,356.574 105.903 C 356.451 106.282,356.219 106.786,356.060 107.023 C 355.900 107.260,355.663 107.725,355.534 108.057 C 355.405 108.389,355.120 108.900,354.901 109.193 C 354.682 109.487,354.502 109.806,354.502 109.902 C 354.502 109.999,354.270 110.370,353.985 110.728 C 353.701 111.086,353.468 111.471,353.468 111.583 C 353.468 111.696,353.274 111.970,353.037 112.193 C 352.801 112.416,352.607 112.664,352.607 112.745 C 352.607 112.912,350.930 115.089,349.715 116.499 C 348.573 117.825,345.490 120.910,344.192 122.026 C 343.592 122.542,342.879 123.158,342.607 123.395 C 341.760 124.135,341.142 124.568,340.486 124.881 C 340.138 125.047,339.854 125.244,339.854 125.320 C 339.854 125.395,339.485 125.656,339.035 125.900 C 337.855 126.537,336.993 127.071,336.634 127.387 C 336.462 127.539,336.127 127.721,335.890 127.791 C 335.653 127.862,335.142 128.104,334.754 128.329 C 334.367 128.554,333.935 128.738,333.795 128.738 C 333.655 128.738,333.104 128.961,332.570 129.234 C 332.037 129.507,331.305 129.784,330.944 129.850 C 330.584 129.915,330.044 130.112,329.745 130.286 C 329.446 130.460,328.748 130.695,328.194 130.810 C 327.640 130.924,326.964 131.131,326.693 131.271 C 326.421 131.410,324.948 131.770,323.418 132.070 L 320.638 132.615 200.172 132.615 L 79.707 132.615 76.950 132.121 C 75.433 131.849,73.882 131.489,73.503 131.321 C 73.124 131.153,72.348 130.921,71.779 130.806 C 71.211 130.691,70.629 130.495,70.487 130.370 C 70.345 130.245,69.841 130.047,69.367 129.931 C 68.893 129.815,68.078 129.510,67.557 129.254 C 67.036 128.997,66.381 128.732,66.103 128.665 C 65.824 128.597,65.398 128.402,65.155 128.231 C 64.912 128.059,64.462 127.864,64.154 127.798 C 63.846 127.731,63.497 127.543,63.378 127.380 C 63.259 127.217,62.916 126.983,62.615 126.861 C 62.314 126.738,61.933 126.490,61.769 126.309 C 61.606 126.128,61.373 125.980,61.253 125.980 C 61.133 125.980,60.815 125.797,60.547 125.574 C 60.280 125.350,59.789 125.031,59.457 124.865 C 59.125 124.699,58.699 124.415,58.509 124.234 C 58.320 124.053,57.854 123.671,57.475 123.386 C 55.586 121.966,51.961 118.437,50.049 116.157 C 48.337 114.115,47.161 112.560,46.530 111.504 C 46.332 111.172,45.909 110.474,45.590 109.953 C 44.887 108.802,43.430 105.927,43.430 105.690 C 43.430 105.595,43.277 105.325,43.091 105.088 C 42.905 104.851,42.668 104.281,42.565 103.821 C 42.462 103.360,42.233 102.749,42.057 102.461 C 41.881 102.174,41.679 101.551,41.609 101.077 C 41.539 100.603,41.300 99.693,41.077 99.055 C 40.854 98.417,40.672 97.705,40.672 97.473 C 40.672 97.240,40.460 96.056,40.200 94.841 C 39.142 89.891,39.585 78.590,41.037 73.503 C 41.226 72.839,41.463 71.954,41.564 71.535 C 41.664 71.117,41.931 70.427,42.157 70.002 C 42.383 69.577,42.568 69.074,42.568 68.885 C 42.568 68.475,43.147 67.226,45.541 62.473 C 45.731 62.094,45.946 61.745,46.018 61.698 C 46.144 61.614,46.426 61.181,47.135 59.983 C 47.324 59.662,47.732 59.113,48.040 58.761 C 48.348 58.410,48.600 58.041,48.600 57.941 C 48.600 57.841,48.794 57.606,49.031 57.420 C 49.268 57.233,49.462 57.015,49.462 56.933 C 49.463 56.852,49.909 56.313,50.453 55.736 C 50.998 55.158,51.872 54.228,52.396 53.668 C 54.906 50.986,60.247 46.532,60.954 46.532 C 61.053 46.532,61.426 46.299,61.784 46.015 C 62.142 45.730,62.529 45.498,62.644 45.498 C 62.759 45.498,63.055 45.311,63.302 45.082 C 63.548 44.854,63.985 44.615,64.273 44.552 C 64.560 44.489,64.837 44.370,64.888 44.288 C 65.060 44.010,68.155 42.595,68.842 42.480 C 69.216 42.418,69.800 42.225,70.138 42.053 C 70.477 41.880,71.139 41.683,71.611 41.615 C 72.083 41.547,72.895 41.316,73.417 41.103 C 73.938 40.889,74.752 40.662,75.226 40.598 C 75.700 40.533,76.670 40.362,77.380 40.216 C 78.091 40.071,79.371 39.893,80.224 39.820 C 82.486 39.626,317.127 39.609,319.431 39.802 " stroke="none" fill="#8c8c8c" fill-rule="evenodd"></path></g></svg>